# xmcd
#
# Track frame offsets: 
#        182
#        12785
#        27237
#        37490
#        46852
#        59130
#        70867
#        84607
#        95677
#        107377
#        119700
#        131612
#        154647
#        167222
#        184400
#        198897
#        212702
#        227230
#        239867
#        254827
#        267962
#        279397
#
# Disc length: 3894 seconds
#
# Revision: 2
# Processed by: cddbd v1.5.1PL0 Copyright (c) Steve Scherf et al.
# Submitted via: ExactAudioCopy v0.90b4
#
DISCID=520f3416
DTITLE=Various Artist - From Where I Stand - CD 3
DYEAR=1900
DGENRE=Country
TTITLE0=The Snakes Crawl At Night/ Charley Pride
TTITLE1=I'm So Afraid Of Losing You Again/ Charley Pride
TTITLE2=Is Anybody Goin To San Antone - Charley Pride
TTITLE3=Kiss An Angel Good Mornin'/ Charley Pride
TTITLE4=Color Him Father/ Linda Martell
TTITLE5=How I Got To Memphis - Otis Williams and the Midnight Cowboys
TTITLE6=The Man That Made A Woman Out Of Me - La Melle Prince
TTITLE7=She's My Rock - Stoney Edwards
TTITLE8=Hank And Left Raised My Country Soul - Stoney Edwards
TTITLE9=Pickin' Wildflowers - Stoney Edwards
TTITLE10=Don't Let The Green Grass Fool You - O.B. McClinton
TTITLE11=Fairy Tale - Pointer Sisters
TTITLE12=Show Me Where - Ruby Falls
TTITLE13=Touch Me - Big Al Downing
TTITLE14=Jambalaya - Professor Longhair
TTITLE15=Whiskey Heaven - Fats Domino
TTITLE16=From Where I Stand - Dobie Gray
TTITLE17=Love Light - Cleve Francis
TTITLE18=The Grand Tour - Aaron Neville
TTITLE19=Irma Jackson - Barrence Whitfield
TTITLE20=There Stands The Glass - Ted Hawkins
TTITLE21=I'm A Happy Cowboy - Herb Jeffries
EXTD=ID3G: 2
EXTT0=
EXTT1=
EXTT2=
EXTT3=
EXTT4=
EXTT5=
EXTT6=
EXTT7=
EXTT8=
EXTT9=
EXTT10=
EXTT11=
EXTT12=
EXTT13=
EXTT14=
EXTT15=
EXTT16=
EXTT17=
EXTT18=
EXTT19=
EXTT20=
EXTT21=
PLAYORDER=
